<?xml version="1.0" encoding="UTF-8"?>
<svg xmlns:ns0="http://sodipodi.sourceforge.net/DTD/sodipodi-0.dtd" xmlns:ns1="http://www.inkscape.org/namespaces/inkscape" version="1.1" id="svg1" viewBox="0 0 86.92913 86.92913" ns0:docname="Biene.svg" ns1:version="1.4 (86a8ad7, 2024-10-11)" xml:space="preserve" ns1:export-filename="C:\Users\haman_cocglzl\OneDrive\Desktop\Stickerprojekt\3.PNG 96 DPI, weißes Feld\Symbole für Kunden\Biene.png" ns1:export-xdpi="96" ns1:export-ydpi="96" preserveAspectRatio="xMidYMid meet" xmlns="http://www.w3.org/2000/svg"><defs id="defs1" /><g ns1:groupmode="layer" ns1:label="Image" id="g1" /><g id="g2"><path style="fill:#000000;stroke-width:0.105827;stroke-dasharray:none" d="M 42.626934,81.719926 C 42.450675,81.625006 42.09754,81.345762 41.842187,81.099434 41.350283,80.624915 39.419563,78.272469 39.018941,77.659524 38.87319,77.436515 38.554246,77.18573 38.193821,77.010752 35.982103,75.936953 33.292246,73.990376 31.34653,72.055569 29.870742,70.588042 29.156063,69.725297 28.151372,68.198402 25.019847,63.439204 23.917036,57.226391 25.152211,51.302273 c 0.107236,-0.514079 0.173822,-0.934697 0.148065,-0.934697 -0.02574,0 -0.247753,0.13792 -0.493345,0.306485 -1.217644,0.835731 -3.301497,1.672645 -5.126569,2.058949 -1.536796,0.325285 -3.985774,0.331885 -5.414654,0.01466 -3.022333,-0.67112 -5.4875898,-2.250441 -7.2890688,-4.669616 -2.90134,-3.896147 -3.10734,-9.398244 -0.49684,-13.27021 0.941488,-1.396448 2.388328,-2.742135 3.9019938,-3.629195 1.335625,-0.782741 3.336877,-1.444368 5.326033,-1.760838 1.710489,-0.272146 4.965319,-0.151599 7.851406,0.290775 2.355405,0.36104 8.174354,1.663485 9.220338,2.063788 0.535749,0.205033 0.647001,0.146822 0.882173,-0.46158 0.192069,-0.496903 0.201784,-0.599512 0.07314,-0.772632 -0.08163,-0.109823 -0.358514,-0.584184 -0.615419,-1.054198 -2.120792,-3.88019 -1.096255,-9.200006 2.283128,-11.855009 l 0.638665,-0.501767 -0.138424,-0.391154 c -0.34516,-0.975342 -1.148696,-2.49421 -1.732768,-3.27535 -1.269437,-1.697713 -3.015451,-3.103765 -5.323154,-4.2866863 -1.510225,-0.774134 -1.872754,-1.136897 -1.951108,-1.952388 -0.02819,-0.292893 -0.02056,-0.654425 0.01687,-0.803413 0.0953,-0.379507 0.689993,-1.026852 1.101315,-1.198704 0.663855,-0.277379 1.093252,-0.187156 2.555263,0.536942 3.030877,1.501101 5.380576,3.421577 7.008283,5.7280483 0.567563,0.804226 1.365225,2.363244 1.631191,3.188116 0.171766,0.532694 0.203002,0.566615 0.465902,0.50599 2.203579,-0.508218 5.812091,-0.510964 7.549006,-0.0062 0.184398,0.05368 0.247016,-0.02204 0.417083,-0.504045 0.74668,-2.116274 2.365509,-4.430982 4.230161,-6.0485443 1.760074,-1.526834 4.907683,-3.40402 5.894238,-3.515223 1.32398,-0.149234 2.427118,1.206781 2.009984,2.470727 -0.221679,0.671687 -0.613905,1.009161 -1.937109,1.666675 -1.73641,0.8628553 -2.758559,1.5744443 -3.897389,2.7132763 -1.365214,1.365212 -2.432351,3.044421 -3.044717,4.791062 -0.133857,0.381809 -0.127799,0.410952 0.121397,0.583777 0.842762,0.584516 2.058137,1.97151 2.646457,3.020166 1.224708,2.183006 1.564373,5.096944 0.864777,7.418855 -0.211485,0.7019 -0.768903,1.883515 -1.293914,2.742837 -0.236269,0.38671 -0.236331,0.388421 -0.03473,0.85457 0.111055,0.256903 0.232157,0.503674 0.269006,0.548391 0.03682,0.04469 0.33505,-0.01108 0.662674,-0.123637 1.808977,-0.622389 6.903705,-1.752539 9.980963,-2.21407 1.603132,-0.240442 2.267331,-0.286342 4.151708,-0.286933 2.412047,-7.26e-4 3.375838,0.116965 5.152631,0.62964 3.990593,1.151315 7.13713,3.973589 8.30333,7.447628 1.09479,3.261298 0.545377,7.225555 -1.404463,10.133792 -1.830795,2.730685 -4.708301,4.641668 -7.962803,5.288164 -1.224092,0.243163 -3.574666,0.242978 -4.889855,-4.44e-4 -1.831016,-0.338779 -3.83557,-1.116386 -5.316468,-2.062324 -0.309588,-0.197756 -0.582632,-0.359562 -0.606764,-0.359562 -0.02413,0 0.0024,0.156229 0.05799,0.347177 0.619507,2.11098 0.786409,6.778849 0.331318,9.2668 -0.484887,2.650877 -1.282698,4.936086 -2.425185,6.946563 -2.257691,3.972962 -5.966596,7.498022 -10.337102,9.824735 -1.008679,0.536979 -1.072432,0.593171 -1.860688,1.639858 -1.239137,1.645399 -2.339665,2.909297 -2.758793,3.168331 -0.504673,0.311902 -1.485638,0.393062 -1.920402,0.158886 z M 55.120129,66.475462 c 1.209046,-1.585575 2.159342,-3.519064 2.674245,-5.440993 0.147277,-0.549734 0.267874,-1.071619 0.267985,-1.159748 1.85e-4,-0.141638 -1.692074,-0.160501 -14.580917,-0.162582 -12.19918,-0.0024 -14.581113,0.0213 -14.581113,0.142439 0,0.307027 0.443334,1.859863 0.791396,2.77193 0.606481,1.589232 1.248827,2.744572 2.286231,4.112014 l 0.385319,0.507886 11.105227,-0.02721 11.105241,-0.02721 z m 2.622091,-15.61209 c 0,-0.02105 -0.190246,-0.551176 -0.422772,-1.177983 -0.737974,-1.989301 -1.987022,-4.361925 -3.166335,-6.014576 L 53.672202,42.996874 H 43.381173 33.090143 l -0.838268,1.255156 c -1.029254,1.541127 -2.223439,3.887022 -2.705284,5.314387 -0.198337,0.58752 -0.381958,1.128304 -0.408048,1.201745 -0.0378,0.106379 2.863593,0.133525 14.278126,0.133525 7.879055,0 14.325551,-0.01724 14.325551,-0.03829 z M 19.126125,48.800371 c 2.504241,-0.487546 4.910531,-1.859605 7.136525,-4.069193 2.21711,-2.200785 3.8836,-4.71975 5.210708,-7.876211 0.313034,-0.744511 0.372538,-0.978688 0.264106,-1.039374 C 31.457586,35.658971 27.64659,34.6546 25.937562,34.28706 23.04951,33.665965 21.659436,33.482429 19.339769,33.415932 c -3.481572,-0.09985 -5.336078,0.256374 -7.286487,1.399477 -1.742568,1.021287 -2.7522388,2.294171 -3.3575228,4.23282 -0.204981,0.656493 -0.247849,1.023898 -0.242635,2.079265 0.0058,1.161903 0.03964,1.380147 0.362179,2.332215 0.725427,2.14138 2.1394598,3.747355 4.1151558,4.673791 1.932414,0.906132 3.886437,1.116459 6.195666,0.666871 z m 51.701771,0.173552 c 2.851971,-0.326419 5.001845,-1.54433 6.363328,-3.60483 1.172442,-1.774394 1.552849,-3.928565 1.058149,-5.992144 -0.659497,-2.751049 -2.867422,-4.775869 -6.140516,-5.631263 -0.935546,-0.244493 -1.344282,-0.285604 -3.310571,-0.332993 -3.304649,-0.07966 -5.575453,0.220214 -9.881025,1.304724 -1.620159,0.408096 -3.504056,0.920882 -3.923455,1.067925 -0.194395,0.06821 0.746482,2.217148 1.688591,3.856797 1.956845,3.405633 4.54631,6.164205 7.212713,7.683725 1.856724,1.058087 3.483778,1.546521 5.811156,1.744474 0.08816,0.0074 0.592863,-0.03595 1.12163,-0.0964 z" id="path1" /></g></svg>